<?xml version="1.0" encoding="UTF-8" standalone="no"?>
<svg
   xmlns:dc="http://purl.org/dc/elements/1.1/"
   xmlns:cc="http://creativecommons.org/ns#"
   xmlns:rdf="http://www.w3.org/1999/02/22-rdf-syntax-ns#"
   xmlns:svg="http://www.w3.org/2000/svg"
   xmlns="http://www.w3.org/2000/svg"
   xmlns:sodipodi="http://sodipodi.sourceforge.net/DTD/sodipodi-0.dtd"
   xmlns:inkscape="http://www.inkscape.org/namespaces/inkscape"
   inkscape:version="1.0beta2 (unknown)"
   height="90"
   width="396.20999"
   sodipodi:docname="netdata_logo.svg"
   version="1.1"
   viewBox="0 0 396.20999 90"
   data-name="Layer 1"
   id="Layer_1">
  <metadata
     id="metadata29">
    <rdf:RDF>
      <cc:Work
         rdf:about="">
        <dc:format>image/svg+xml</dc:format>
        <dc:type
           rdf:resource="http://purl.org/dc/dcmitype/StillImage" />
        <dc:title>logo_white_text_white</dc:title>
      </cc:Work>
    </rdf:RDF>
  </metadata>
  <sodipodi:namedview
     inkscape:current-layer="Layer_1"
     inkscape:window-maximized="0"
     inkscape:window-y="0"
     inkscape:window-x="0"
     inkscape:cy="-186.62449"
     inkscape:cx="-594.12064"
     inkscape:zoom="0.32757538"
     fit-margin-bottom="0"
     fit-margin-right="0"
     fit-margin-left="0"
     fit-margin-top="0"
     showgrid="false"
     id="namedview27"
     inkscape:window-height="1053"
     inkscape:window-width="1989"
     inkscape:pageshadow="2"
     inkscape:pageopacity="0"
     guidetolerance="10"
     gridtolerance="10"
     objecttolerance="10"
     borderopacity="1"
     inkscape:document-rotation="0"
     bordercolor="#666666"
     pagecolor="#ffffff" />
  <defs
     id="defs4">
    <style
       id="style2">.cls-1{fill:#fff;}</style>
  </defs>
  <title
     id="title6">logo_white_text_white</title>
  <g
     transform="translate(-0.88,-154)"
     id="mask-2">
    <path
       inkscape:connector-curvature="0"
       id="path8"
       d="M 70.27,244 H 47.51 L 0.88,154 h 66.18 a 46.65,46.65 0 0 1 46.6,46.6 43.44,43.44 0 0 1 -43.39,43.4 z"
       class="cls-1" />
  </g>
  <g
     transform="translate(-0.88,-154)"
     data-name="mask-2"
     id="mask-2-2">
    <path
       inkscape:connector-curvature="0"
       id="path11"
       d="m 278,214 h -8 l -0.06,-30 h 7 A 15.53,15.53 0 0 1 292.46,199.52 14.51,14.51 0 0 1 278,214 Z m -6.32,-1.66 H 278 A 12.85,12.85 0 0 0 290.84,199.5 13.89,13.89 0 0 0 277,185.58 h -5.4 z"
       class="cls-1" />
  </g>
  <path
     inkscape:connector-curvature="0"
     id="path14"
     d="m 156.34,29.91 h 2.33 l 19,27.67 h 0.08 V 29.91 h 1.86 v 30.17 h -2.19 L 158.24,32.19 h -0.09 v 27.89 h -1.86 z"
     class="cls-1" />
  <path
     inkscape:connector-curvature="0"
     id="path16"
     d="m 197.66,29.91 h 20.28 v 1.61 H 199.52 V 43.6 h 17.32 v 1.6 h -17.32 v 13.27 h 18.6 v 1.61 h -20.46 z"
     class="cls-1" />
  <path
     inkscape:connector-curvature="0"
     id="path18"
     d="m 230.74,31.52 v -1.61 h 23.11 v 1.61 H 243.2 v 28.56 h -1.86 V 31.52 Z"
     class="cls-1" />
  <path
     inkscape:connector-curvature="0"
     id="path20"
     d="m 316.56,29.91 h 2 l 11.91,30.17 h -2 l -3.81,-9.68 h -14.39 l -3.85,9.68 h -2 z m 7.56,18.89 -6.46,-17.07 h -0.08 l -6.72,17.07 z"
     class="cls-1" />
  <path
     inkscape:connector-curvature="0"
     id="path22"
     d="m 338.78,31.52 v -1.61 h 23.11 v 1.61 h -10.64 v 28.56 h -1.86 V 31.52 Z"
     class="cls-1" />
  <path
     inkscape:connector-curvature="0"
     id="path24"
     d="m 382.3,29.91 h 2 l 11.91,30.17 h -2 l -3.8,-9.68 H 376 l -3.88,9.68 h -2 z m 7.56,18.89 -6.46,-17.07 h -0.09 l -6.72,17.07 z"
     class="cls-1" />
</svg>
