<svg width="632" height="92" viewBox="0 0 632 92" fill="none" xmlns="http://www.w3.org/2000/svg">
<path d="M29.96 19.9705C36.424 19.9705 41.608 21.8585 45.512 25.6345C49.416 29.4105 51.368 35.0105 51.368 42.4345V71.8105H39.368V43.9705C39.368 39.4905 38.312 36.1305 36.2 33.8905C34.088 31.5865 31.08 30.4345 27.176 30.4345C22.76 30.4345 19.272 31.7785 16.712 34.4665C14.152 37.0905 12.872 40.8985 12.872 45.8905V71.8105H0.872V20.5465H12.296V27.1705C14.28 24.8025 16.776 23.0105 19.784 21.7945C22.792 20.5785 26.184 19.9705 29.96 19.9705ZM112.863 46.4665C112.863 47.2985 112.799 48.4825 112.671 50.0185H72.4468C73.1508 53.7945 74.9748 56.8025 77.9188 59.0425C80.9268 61.2185 84.6388 62.3065 89.0548 62.3065C94.6868 62.3065 99.3268 60.4505 102.975 56.7385L109.407 64.1305C107.103 66.8825 104.191 68.9625 100.671 70.3705C97.1508 71.7785 93.1828 72.4825 88.7668 72.4825C83.1348 72.4825 78.1748 71.3625 73.8868 69.1225C69.5988 66.8825 66.2708 63.7785 63.9028 59.8105C61.5988 55.7785 60.4468 51.2345 60.4468 46.1785C60.4468 41.1865 61.5668 36.7065 63.8068 32.7385C66.1108 28.7065 69.2788 25.5705 73.3108 23.3305C77.3428 21.0905 81.8868 19.9705 86.9428 19.9705C91.9348 19.9705 96.3828 21.0905 100.287 23.3305C104.255 25.5065 107.327 28.6105 109.503 32.6425C111.743 36.6105 112.863 41.2185 112.863 46.4665ZM86.9428 29.5705C83.1028 29.5705 79.8388 30.7225 77.1508 33.0265C74.5268 35.2665 72.9268 38.2745 72.3508 42.0505H101.439C100.927 38.3385 99.3588 35.3305 96.7348 33.0265C94.1108 30.7225 90.8468 29.5705 86.9428 29.5705ZM156.166 69.0265C154.758 70.1785 153.03 71.0425 150.982 71.6185C148.998 72.1945 146.886 72.4825 144.646 72.4825C139.014 72.4825 134.662 71.0105 131.59 68.0665C128.518 65.1225 126.982 60.8345 126.982 55.2025V30.5305H118.534V20.9305H126.982V9.21855H138.982V20.9305H152.71V30.5305H138.982V54.9145C138.982 57.4105 139.59 59.3305 140.806 60.6745C142.022 61.9545 143.782 62.5945 146.086 62.5945C148.774 62.5945 151.014 61.8905 152.806 60.4825L156.166 69.0265ZM214.325 0.578543V71.8105H202.805V65.1865C200.821 67.6185 198.357 69.4425 195.413 70.6585C192.533 71.8745 189.333 72.4825 185.813 72.4825C180.885 72.4825 176.437 71.3945 172.469 69.2185C168.565 67.0425 165.493 63.9705 163.253 60.0025C161.013 55.9705 159.893 51.3625 159.893 46.1785C159.893 40.9945 161.013 36.4185 163.253 32.4505C165.493 28.4825 168.565 25.4105 172.469 23.2345C176.437 21.0585 180.885 19.9705 185.813 19.9705C189.205 19.9705 192.309 20.5465 195.125 21.6985C197.941 22.8505 200.341 24.5785 202.325 26.8825V0.578543H214.325ZM187.253 62.2105C190.133 62.2105 192.725 61.5705 195.029 60.2905C197.333 58.9465 199.157 57.0585 200.501 54.6265C201.845 52.1945 202.517 49.3785 202.517 46.1785C202.517 42.9785 201.845 40.1625 200.501 37.7305C199.157 35.2985 197.333 33.4425 195.029 32.1625C192.725 30.8185 190.133 30.1465 187.253 30.1465C184.373 30.1465 181.781 30.8185 179.477 32.1625C177.173 33.4425 175.349 35.2985 174.005 37.7305C172.661 40.1625 171.989 42.9785 171.989 46.1785C171.989 49.3785 172.661 52.1945 174.005 54.6265C175.349 57.0585 177.173 58.9465 179.477 60.2905C181.781 61.5705 184.373 62.2105 187.253 62.2105ZM277.255 20.5465V71.8105H265.831V65.1865C263.847 67.6185 261.383 69.4425 258.439 70.6585C255.559 71.8745 252.359 72.4825 248.839 72.4825C243.847 72.4825 239.367 71.3945 235.399 69.2185C231.495 67.0425 228.423 63.9705 226.183 60.0025C224.007 56.0345 222.919 51.4265 222.919 46.1785C222.919 40.9305 224.007 36.3545 226.183 32.4505C228.423 28.4825 231.495 25.4105 235.399 23.2345C239.367 21.0585 243.847 19.9705 248.839 19.9705C252.167 19.9705 255.207 20.5465 257.959 21.6985C260.775 22.8505 263.207 24.5465 265.255 26.7865V20.5465H277.255ZM250.183 62.2105C254.599 62.2105 258.247 60.7385 261.127 57.7945C264.007 54.8505 265.447 50.9785 265.447 46.1785C265.447 41.3785 264.007 37.5065 261.127 34.5625C258.247 31.6185 254.599 30.1465 250.183 30.1465C245.767 30.1465 242.119 31.6185 239.239 34.5625C236.423 37.5065 235.015 41.3785 235.015 46.1785C235.015 50.9785 236.423 54.8505 239.239 57.7945C242.119 60.7385 245.767 62.2105 250.183 62.2105ZM324.732 69.0265C323.324 70.1785 321.596 71.0425 319.548 71.6185C317.564 72.1945 315.452 72.4825 313.212 72.4825C307.58 72.4825 303.228 71.0105 300.156 68.0665C297.084 65.1225 295.548 60.8345 295.548 55.2025V30.5305H287.1V20.9305H295.548V9.21855H307.548V20.9305H321.276V30.5305H307.548V54.9145C307.548 57.4105 308.156 59.3305 309.372 60.6745C310.588 61.9545 312.348 62.5945 314.652 62.5945C317.34 62.5945 319.58 61.8905 321.372 60.4825L324.732 69.0265ZM382.795 20.5465V71.8105H371.371V65.1865C369.387 67.6185 366.923 69.4425 363.979 70.6585C361.099 71.8745 357.899 72.4825 354.379 72.4825C349.387 72.4825 344.907 71.3945 340.939 69.2185C337.035 67.0425 333.963 63.9705 331.723 60.0025C329.547 56.0345 328.459 51.4265 328.459 46.1785C328.459 40.9305 329.547 36.3545 331.723 32.4505C333.963 28.4825 337.035 25.4105 340.939 23.2345C344.907 21.0585 349.387 19.9705 354.379 19.9705C357.707 19.9705 360.747 20.5465 363.499 21.6985C366.315 22.8505 368.747 24.5465 370.795 26.7865V20.5465H382.795ZM355.723 62.2105C360.139 62.2105 363.787 60.7385 366.667 57.7945C369.547 54.8505 370.987 50.9785 370.987 46.1785C370.987 41.3785 369.547 37.5065 366.667 34.5625C363.787 31.6185 360.139 30.1465 355.723 30.1465C351.307 30.1465 347.659 31.6185 344.779 34.5625C341.963 37.5065 340.555 41.3785 340.555 46.1785C340.555 50.9785 341.963 54.8505 344.779 57.7945C347.659 60.7385 351.307 62.2105 355.723 62.2105ZM402.336 72.4825C400.16 72.4825 398.304 71.7465 396.768 70.2745C395.232 68.7385 394.464 66.8185 394.464 64.5145C394.464 62.1465 395.2 60.2265 396.672 58.7545C398.208 57.2825 400.096 56.5465 402.336 56.5465C404.576 56.5465 406.432 57.2825 407.904 58.7545C409.44 60.2265 410.208 62.1465 410.208 64.5145C410.208 66.8185 409.44 68.7385 407.904 70.2745C406.368 71.7465 404.512 72.4825 402.336 72.4825Z" fill="#444444"/>
<path d="M450.349 19.9705C455.341 19.9705 459.789 21.0585 463.693 23.2345C467.661 25.4105 470.765 28.4825 473.005 32.4505C475.245 36.4185 476.365 40.9945 476.365 46.1785C476.365 51.3625 475.245 55.9705 473.005 60.0025C470.765 63.9705 467.661 67.0425 463.693 69.2185C459.789 71.3945 455.341 72.4825 450.349 72.4825C446.829 72.4825 443.597 71.8745 440.653 70.6585C437.773 69.4425 435.341 67.6185 433.357 65.1865V71.8105H421.933V0.578543H433.933V26.7865C435.981 24.5465 438.381 22.8505 441.133 21.6985C443.949 20.5465 447.021 19.9705 450.349 19.9705ZM449.005 62.2105C453.421 62.2105 457.037 60.7385 459.853 57.7945C462.733 54.8505 464.173 50.9785 464.173 46.1785C464.173 41.3785 462.733 37.5065 459.853 34.5625C457.037 31.6185 453.421 30.1465 449.005 30.1465C446.125 30.1465 443.533 30.8185 441.229 32.1625C438.925 33.4425 437.101 35.2985 435.757 37.7305C434.413 40.1625 433.741 42.9785 433.741 46.1785C433.741 49.3785 434.413 52.1945 435.757 54.6265C437.101 57.0585 438.925 58.9465 441.229 60.2905C443.533 61.5705 446.125 62.2105 449.005 62.2105ZM504.642 72.4825C499.33 72.4825 495.17 71.0425 492.162 68.1625C489.218 65.2185 487.746 61.0905 487.746 55.7785V0.578543H499.746V54.9145C499.746 60.0345 502.146 62.5945 506.946 62.5945C508.546 62.5945 509.986 62.2745 511.266 61.6345L511.842 71.2345C509.602 72.0665 507.202 72.4825 504.642 72.4825ZM542.098 72.4825C536.914 72.4825 532.242 71.3625 528.082 69.1225C523.922 66.8825 520.658 63.7785 518.29 59.8105C515.986 55.7785 514.834 51.2345 514.834 46.1785C514.834 41.1225 515.986 36.6105 518.29 32.6425C520.658 28.6745 523.922 25.5705 528.082 23.3305C532.242 21.0905 536.914 19.9705 542.098 19.9705C547.346 19.9705 552.05 21.0905 556.21 23.3305C560.37 25.5705 563.602 28.6745 565.906 32.6425C568.274 36.6105 569.458 41.1225 569.458 46.1785C569.458 51.2345 568.274 55.7785 565.906 59.8105C563.602 63.7785 560.37 66.8825 556.21 69.1225C552.05 71.3625 547.346 72.4825 542.098 72.4825ZM542.098 62.2105C546.514 62.2105 550.162 60.7385 553.042 57.7945C555.922 54.8505 557.362 50.9785 557.362 46.1785C557.362 41.3785 555.922 37.5065 553.042 34.5625C550.162 31.6185 546.514 30.1465 542.098 30.1465C537.682 30.1465 534.034 31.6185 531.154 34.5625C528.338 37.5065 526.93 41.3785 526.93 46.1785C526.93 50.9785 528.338 54.8505 531.154 57.7945C534.034 60.7385 537.682 62.2105 542.098 62.2105ZM631.813 20.5465V64.0345C631.813 82.0825 622.597 91.1065 604.165 91.1065C599.237 91.1065 594.565 90.4665 590.149 89.1865C585.733 87.9705 582.085 86.1785 579.205 83.8105L584.581 74.7865C586.821 76.6425 589.637 78.1145 593.029 79.2025C596.485 80.3545 599.973 80.9305 603.493 80.9305C609.125 80.9305 613.253 79.6505 615.877 77.0905C618.501 74.5305 619.813 70.6265 619.813 65.3785V62.6905C617.765 64.9305 615.269 66.6265 612.325 67.7785C609.381 68.9305 606.149 69.5065 602.629 69.5065C597.765 69.5065 593.349 68.4825 589.381 66.4345C585.477 64.3225 582.373 61.3785 580.069 57.6025C577.829 53.8265 576.709 49.5065 576.709 44.6425C576.709 39.7785 577.829 35.4905 580.069 31.7785C582.373 28.0025 585.477 25.0905 589.381 23.0425C593.349 20.9945 597.765 19.9705 602.629 19.9705C606.341 19.9705 609.701 20.5785 612.709 21.7945C615.781 23.0105 618.341 24.8665 620.389 27.3625V20.5465H631.813ZM604.453 59.3305C608.997 59.3305 612.709 57.9865 615.589 55.2985C618.533 52.5465 620.005 48.9945 620.005 44.6425C620.005 40.3545 618.533 36.8665 615.589 34.1785C612.709 31.4905 608.997 30.1465 604.453 30.1465C599.845 30.1465 596.069 31.4905 593.125 34.1785C590.245 36.8665 588.805 40.3545 588.805 44.6425C588.805 48.9945 590.245 52.5465 593.125 55.2985C596.069 57.9865 599.845 59.3305 604.453 59.3305Z" fill="#00C853"/>
</svg>
